<svg xmlns="http://www.w3.org/2000/svg" xmlns:xlink="http://www.w3.org/1999/xlink" width="500" zoomAndPan="magnify" viewBox="0 0 375 374.999991" height="500" preserveAspectRatio="xMidYMid meet" version="1.0"><defs><clipPath id="e21478fd54"><path d="M 2.648438 18.054688 L 137.648438 18.054688 L 137.648438 187.554688 L 2.648438 187.554688 Z M 2.648438 18.054688 " clip-rule="nonzero"/></clipPath><clipPath id="76a591a8c8"><path d="M 127.828125 45.367188 L 233.578125 45.367188 L 233.578125 209.617188 L 127.828125 209.617188 Z M 127.828125 45.367188 " clip-rule="nonzero"/></clipPath><clipPath id="e3177eb276"><path d="M 243.195312 12.644531 L 372.195312 12.644531 L 372.195312 176.894531 L 243.195312 176.894531 Z M 243.195312 12.644531 " clip-rule="nonzero"/></clipPath></defs><g clip-path="url(#e21478fd54)"><path fill="#adb1ff" d="M 6.632812 60.273438 L 47.996094 65.167969 L 44.824219 183.890625 L 98.320312 187.535156 L 88.261719 64.304688 L 135.328125 57.578125 L 137.597656 18.042969 L 2.699219 20.160156 Z M 6.632812 60.273438 " fill-opacity="1" fill-rule="nonzero"/></g><g clip-path="url(#76a591a8c8)"><path fill="#adb1ff" d="M 228.460938 95.019531 L 202.398438 96.765625 L 194.933594 78.28125 L 183.9375 72.910156 L 167.066406 75.886719 L 162.585938 94.421875 L 168.097656 109.875 L 222.175781 127.492188 L 233.527344 156.089844 L 222.269531 203.332031 L 202.96875 209.617188 L 163.476562 209.617188 L 142.875 200.777344 L 130.917969 163.992188 L 159.644531 162.199219 L 172.945312 182.378906 L 190.179688 183.140625 L 198.105469 156.089844 L 173.90625 142.625 L 142.972656 136.476562 L 127.847656 119.792969 L 131.652344 71.34375 L 157.195312 50.75 L 190.179688 45.367188 L 223.765625 61.289062 Z M 228.460938 95.019531 " fill-opacity="1" fill-rule="nonzero"/></g><g clip-path="url(#e3177eb276)"><path fill="#adb1ff" d="M 345.828125 17.40625 L 272.675781 12.679688 L 243.179688 174.105469 L 286.832031 173.316406 L 291.945312 106.382812 L 330.097656 107.171875 L 339.929688 176.859375 L 372.175781 176.859375 Z M 328.128906 78.039062 L 298.238281 78.039062 L 298.238281 51.65625 L 328.128906 54.410156 Z M 328.128906 78.039062 " fill-opacity="1" fill-rule="nonzero"/></g></svg>