<svg xmlns="http://www.w3.org/2000/svg" xmlns:xlink="http://www.w3.org/1999/xlink" width="500" zoomAndPan="magnify" viewBox="0 0 375 374.999991" height="500" preserveAspectRatio="xMidYMid meet" version="1.0"><defs><clipPath id="c80ee32bcc"><path d="M 0 0 L 187.5 0 L 187.5 187.5 L 0 187.5 Z M 0 0 " clip-rule="nonzero"/></clipPath><clipPath id="fe6bb2ac09"><path d="M 0 187.5 L 187.5 187.5 L 187.5 375 L 0 375 Z M 0 187.5 " clip-rule="nonzero"/></clipPath><clipPath id="ceb080fe2f"><path d="M 187.5 0 L 375 0 L 375 187.5 L 187.5 187.5 Z M 187.5 0 " clip-rule="nonzero"/></clipPath><clipPath id="20be42d884"><path d="M 187.5 187.5 L 375 187.5 L 375 375 L 187.5 375 Z M 187.5 187.5 " clip-rule="nonzero"/></clipPath></defs><path fill="#d1d3d4" d="M 186.964844 186.964844 L 51.539062 186.964844 C 23.378906 186.964844 0.554688 164.136719 0.554688 135.980469 L 0.554688 0.554688 L 135.980469 0.554688 C 164.136719 0.554688 186.960938 23.378906 186.960938 51.539062 L 186.960938 186.964844 Z M 186.964844 186.964844 " fill-opacity="1" fill-rule="nonzero"/><g clip-path="url(#c80ee32bcc)"><path fill="#231f20" d="M 187.515625 187.515625 L 51.539062 187.515625 C 23.117188 187.515625 0 164.398438 0 135.980469 L 0 0 L 135.980469 0 C 164.398438 0 187.515625 23.117188 187.515625 51.539062 Z M 1.113281 1.113281 L 1.113281 135.980469 C 1.113281 163.78125 23.734375 186.402344 51.539062 186.402344 L 186.402344 186.402344 L 186.402344 51.539062 C 186.402344 23.734375 163.785156 1.113281 135.980469 1.113281 Z M 1.113281 1.113281 " fill-opacity="1" fill-rule="nonzero"/></g><path fill="#d1d3d4" d="M 186.964844 188.035156 L 186.964844 323.460938 C 186.964844 351.621094 164.136719 374.445312 135.980469 374.445312 L 0.554688 374.445312 L 0.554688 239.019531 C 0.554688 210.863281 23.378906 188.039062 51.539062 188.039062 L 186.964844 188.039062 Z M 186.964844 188.035156 " fill-opacity="1" fill-rule="nonzero"/><g clip-path="url(#fe6bb2ac09)"><path fill="#231f20" d="M 187.515625 187.484375 L 187.515625 323.460938 C 187.515625 351.882812 164.398438 375 135.980469 375 L 0 375 L 0 239.019531 C 0 210.601562 23.117188 187.484375 51.539062 187.484375 Z M 1.113281 373.886719 L 135.980469 373.886719 C 163.78125 373.886719 186.402344 351.265625 186.402344 323.460938 L 186.402344 188.597656 L 51.539062 188.597656 C 23.734375 188.597656 1.113281 211.214844 1.113281 239.019531 Z M 1.113281 373.886719 " fill-opacity="1" fill-rule="nonzero"/></g><path fill="#d1d3d4" d="M 188.035156 186.964844 L 188.035156 51.539062 C 188.035156 23.378906 210.863281 0.554688 239.019531 0.554688 L 374.445312 0.554688 L 374.445312 135.980469 C 374.445312 164.136719 351.621094 186.960938 323.460938 186.960938 L 188.035156 186.960938 Z M 188.035156 186.964844 " fill-opacity="1" fill-rule="nonzero"/><g clip-path="url(#ceb080fe2f)"><path fill="#231f20" d="M 187.484375 187.515625 L 187.484375 51.539062 C 187.484375 23.117188 210.601562 0 239.019531 0 L 375 0 L 375 135.980469 C 375 164.398438 351.882812 187.515625 323.460938 187.515625 Z M 373.886719 1.113281 L 239.019531 1.113281 C 211.21875 1.113281 188.597656 23.734375 188.597656 51.539062 L 188.597656 186.402344 L 323.460938 186.402344 C 351.265625 186.402344 373.886719 163.785156 373.886719 135.980469 Z M 373.886719 1.113281 " fill-opacity="1" fill-rule="nonzero"/></g><path fill="#d1d3d4" d="M 188.035156 188.035156 L 323.460938 188.035156 C 351.621094 188.035156 374.445312 210.863281 374.445312 239.019531 L 374.445312 374.445312 L 239.019531 374.445312 C 210.863281 374.445312 188.039062 351.621094 188.039062 323.460938 L 188.039062 188.035156 Z M 188.035156 188.035156 " fill-opacity="1" fill-rule="nonzero"/><g clip-path="url(#20be42d884)"><path fill="#231f20" d="M 187.484375 187.484375 L 323.460938 187.484375 C 351.882812 187.484375 375 210.601562 375 239.019531 L 375 375 L 239.019531 375 C 210.601562 375 187.484375 351.882812 187.484375 323.460938 Z M 373.886719 373.886719 L 373.886719 239.019531 C 373.886719 211.21875 351.265625 188.597656 323.460938 188.597656 L 188.597656 188.597656 L 188.597656 323.460938 C 188.597656 351.265625 211.214844 373.886719 239.019531 373.886719 Z M 373.886719 373.886719 " fill-opacity="1" fill-rule="nonzero"/></g></svg>